<svg width="16" height="9" viewBox="0 0 16 9" fill="none" xmlns="http://www.w3.org/2000/svg">
<path fill-rule="evenodd" clip-rule="evenodd" d="M15.863 0.583873C15.6138 0.146814 15.0793 -0.053045 14.5369 0.087933C14.3402 0.139028 14.1987 0.222011 13.9985 0.403642C13.8491 0.539165 12.4488 1.95594 10.8866 3.5521C9.32456 5.14827 8.03008 6.45306 8.01002 6.45171C7.98996 6.45036 6.71288 5.15834 5.17209 3.58059C1.63556 -0.0407373 1.81757 0.133248 1.47297 0.0437378C0.507304 -0.207076 -0.336647 0.669421 0.134421 1.43384C0.303734 1.70857 7.12664 8.65482 7.38389 8.8143C7.85954 9.10931 8.4273 9.0495 8.86262 8.65855C8.99922 8.53589 10.6335 6.87982 12.4943 4.97843C15.0325 2.38493 15.8935 1.47524 15.941 1.33669C16.0381 1.05347 16.0175 0.854687 15.863 0.583873Z" fill="white"/>
</svg>
