<svg width="20" height="20" viewBox="0 0 20 20" fill="none" xmlns="http://www.w3.org/2000/svg">
<path fill-rule="evenodd" clip-rule="evenodd" d="M1.47338 0.0358532C0.780114 0.152443 0.154812 0.792082 0.0382904 1.50389C-0.0127635 1.81556 -0.0127635 18.1795 0.0382904 18.4912C0.157859 19.2216 0.7782 19.8421 1.50846 19.9617C1.82006 20.0128 18.1799 20.0128 18.4915 19.9617C19.2218 19.8421 19.8421 19.2216 19.9617 18.4912C20.0128 18.1795 20.0128 1.81556 19.9617 1.50389C19.8421 0.773445 19.2218 0.152951 18.4915 0.0333526C18.2103 -0.0127127 1.74779 -0.0102903 1.47338 0.0358532ZM15.9188 5.05803C15.9903 5.09194 16.217 5.2932 16.4227 5.50524L16.7968 5.8908V6.09721V6.30363L12.8027 10.303C10.6059 12.5027 8.7383 14.3491 8.65237 14.4062C8.51596 14.4968 8.45643 14.51 8.18362 14.5101C7.92906 14.5102 7.84578 14.4944 7.73441 14.4244C7.65922 14.3771 6.60896 13.3479 5.40047 12.1372L3.20324 9.93595V9.75771C3.20324 9.62307 3.23058 9.54219 3.31511 9.42708C3.48284 9.19863 3.99752 8.71614 4.12533 8.66753C4.40228 8.5622 4.3815 8.54496 6.34823 10.508L8.18464 12.341L11.7969 8.72762C13.7836 6.74033 15.4621 5.08819 15.5268 5.05623C15.6779 4.98164 15.7586 4.98199 15.9188 5.05803Z" fill="#1488CC"/>
</svg>
