<svg width="13" height="16" viewBox="0 0 13 16" fill="none" xmlns="http://www.w3.org/2000/svg">
<path fill-rule="evenodd" clip-rule="evenodd" d="M5.71889 0.0335861C4.56392 0.149102 3.3186 0.638917 2.41803 1.33182C2.15575 1.53363 1.65399 2.01032 1.43708 2.26379C0.383784 3.49452 -0.143943 5.1789 0.0340344 6.74217C0.145773 7.72368 0.524363 8.73628 1.06636 9.50316C1.17121 9.6515 2.3516 11.1739 3.68948 12.8864L6.12195 16H6.40134H6.68077L9.1132 12.8863C10.4511 11.1737 11.6314 9.65125 11.7363 9.50301C11.8411 9.35477 12.0187 9.0561 12.131 8.83929C13.0154 7.13185 13.0233 5.15349 12.1525 3.45145C10.962 1.12461 8.40299 -0.234887 5.71889 0.0335861ZM6.84225 4.13901C7.62769 4.29628 8.31105 4.95018 8.47541 5.70175C8.57532 6.15881 8.51506 6.59374 8.29132 7.03005C8.10018 7.40282 7.73808 7.7493 7.34852 7.9322C6.71957 8.22752 6.08305 8.22752 5.4541 7.9322C5.06454 7.7493 4.70244 7.40282 4.5113 7.03005C4.20267 6.42822 4.20267 5.81914 4.5113 5.21731C4.77828 4.69665 5.35771 4.26124 5.94404 4.14076C6.22399 4.08322 6.56031 4.08256 6.84225 4.13901Z" fill="#9AA2B1"/>
</svg>
