<svg width="195" height="70" viewBox="0 0 195 70" fill="none" xmlns="http://www.w3.org/2000/svg">
<path d="M51.7577 52.6969C51.3521 52.6969 51.0421 52.5875 50.8273 52.3714C50.6367 52.1539 50.5289 51.902 50.5053 51.6125L48.0719 28.3884C48.048 28.0752 48.1197 27.8343 48.2863 27.6653C48.4536 27.4963 48.668 27.4119 48.9306 27.4119H53.2249C53.6066 27.4119 53.8812 27.5214 54.0478 27.7372C54.2151 27.9296 54.3104 28.1348 54.3342 28.3522L55.8731 45.0384L64.4614 28.3522C64.5567 28.1348 64.724 27.9297 64.9623 27.7372C65.2009 27.5214 65.511 27.4119 65.8927 27.4119H70.6882C70.9743 27.4119 71.1533 27.5324 71.2246 27.7734C71.3205 27.9909 71.3086 28.2318 71.1891 28.4961L59.0222 51.6124C58.8788 51.9019 58.664 52.1538 58.3779 52.3714C58.1153 52.5874 57.7698 52.6968 57.3402 52.6968H51.7576L51.7577 52.6969Z" fill="#363539"/>
<path d="M78.1081 47.8568C79.3967 47.8568 80.5299 47.4718 81.5078 46.7004C82.486 45.9305 83.1778 44.702 83.583 43.0167C83.8456 41.9573 84.0723 40.9574 84.2632 40.0184C84.4779 39.0795 84.6688 38.1046 84.8355 37.0921C85.1462 35.4066 85.0028 34.1782 84.4066 33.4082C83.8098 32.6386 82.8677 32.2521 81.5791 32.2521C80.2908 32.2521 79.1579 32.6386 78.1797 33.4082C77.2253 34.1782 76.5452 35.4066 76.1399 37.0921C75.8777 38.1045 75.639 39.0795 75.4239 40.0184C75.2334 40.9574 75.0422 41.9573 74.8516 43.0167C74.5652 44.702 74.7086 45.9305 75.2808 46.7004C75.8537 47.4718 76.7958 47.8568 78.108 47.8568H78.1081ZM77.643 53.0569C76.14 53.0569 74.7445 52.8534 73.4559 52.4434C72.1676 52.0349 71.0822 51.4201 70.1996 50.6017C69.317 49.7831 68.6846 48.7598 68.3029 47.5313C67.945 46.3029 67.8972 44.8711 68.1598 43.2327C68.3506 42.1982 68.5534 41.1623 68.7678 40.1264C69.0065 39.092 69.2455 38.0436 69.4839 36.984C70.2712 33.7342 71.6906 31.2663 73.7423 29.5794C75.7937 27.8939 78.5615 27.0519 82.0441 27.0519C83.5475 27.0519 84.931 27.2678 86.1954 27.7015C87.4839 28.1114 88.5694 28.7372 89.452 29.5794C90.3586 30.4226 90.9906 31.4587 91.3488 32.6854C91.7305 33.9138 91.7783 35.3473 91.4918 36.984C91.3249 38.0435 91.122 39.092 90.8834 40.1264C90.669 41.1623 90.4419 42.1982 90.2036 43.2327C89.3927 46.5313 87.961 49.0007 85.9096 50.6376C83.8576 52.2509 81.1021 53.0569 77.6429 53.0569H77.643Z" fill="#363539"/>
<path d="M90.8088 52.6969C90.5704 52.6969 90.3796 52.6124 90.2365 52.4434C90.0931 52.2744 90.0453 52.0585 90.0931 51.794L95.0317 28.3162C95.0792 28.0501 95.2106 27.8343 95.4251 27.6653C95.6402 27.4963 95.8665 27.412 96.1049 27.412H100.829C101.091 27.412 101.294 27.4963 101.438 27.6653C101.58 27.8343 101.628 28.0501 101.58 28.3162L97.5724 47.2418H108.379C108.641 47.2418 108.834 47.3388 108.952 47.5313C109.094 47.7003 109.143 47.9162 109.094 48.1822L108.343 51.794C108.297 52.0584 108.165 52.2744 107.951 52.4434C107.76 52.6124 107.533 52.6968 107.271 52.6968H90.8088L90.8088 52.6969Z" fill="#363539"/>
<path d="M110.34 52.6969C110.078 52.6969 109.876 52.6124 109.733 52.4434C109.589 52.2744 109.541 52.0585 109.589 51.794L113.561 33.0829H107.192C106.953 33.0829 106.762 32.9999 106.619 32.8309C106.476 32.6385 106.428 32.421 106.476 32.1801L107.299 28.3162C107.347 28.0501 107.465 27.8343 107.656 27.6653C107.872 27.4963 108.109 27.412 108.373 27.412H127.624C127.887 27.412 128.078 27.4963 128.197 27.6653C128.34 27.8343 128.388 28.0501 128.34 28.3162L127.517 32.1801C127.469 32.421 127.339 32.6385 127.123 32.8309C126.932 32.9999 126.706 33.0829 126.443 33.0829H120.074L116.138 51.794C116.09 52.0585 115.959 52.2744 115.743 52.4434C115.552 52.6124 115.326 52.6969 115.063 52.6969H110.34H110.34Z" fill="#363539"/>
<path d="M133.778 38.682H137.929C139.051 38.682 139.945 38.405 140.613 37.8511C141.282 37.2972 141.723 36.5383 141.937 35.5756C142.128 34.6369 142.008 33.878 141.58 33.3005C141.175 32.7216 140.386 32.4335 139.217 32.4335H135.102L133.778 38.682H133.778ZM125.296 52.6969C125.034 52.6969 124.832 52.6125 124.689 52.4435C124.57 52.2745 124.534 52.0585 124.582 51.7941L129.52 28.3162C129.568 28.0502 129.699 27.8344 129.913 27.6654C130.129 27.4964 130.366 27.412 130.63 27.412H140.363C143.441 27.412 145.706 28.1349 147.162 29.5794C148.641 31.0003 149.107 33.0234 148.557 35.6479C148.2 37.3582 147.483 38.8026 146.411 39.9824C145.361 41.1624 144.109 42.0528 142.652 42.6553L145.695 51.5406C145.718 51.6126 145.731 51.6736 145.731 51.7205C145.731 51.769 145.718 51.841 145.695 51.938C145.672 52.1305 145.563 52.3121 145.372 52.4796C145.183 52.6234 144.979 52.6969 144.764 52.6969H140.041C139.587 52.6969 139.278 52.5875 139.11 52.3715C138.967 52.1305 138.86 51.9146 138.789 51.7205L136.39 43.7742H132.705L131.023 51.7941C130.975 52.0586 130.844 52.2745 130.63 52.4435C130.414 52.6125 130.175 52.6969 129.913 52.6969H125.296L125.296 52.6969Z" fill="#363539"/>
<path d="M157.303 47.8568C158.592 47.8568 159.725 47.4718 160.704 46.7004C161.682 45.9305 162.373 44.702 162.78 43.0167C163.042 41.9573 163.269 40.9574 163.46 40.0184C163.674 39.0795 163.865 38.1046 164.031 37.0921C164.342 35.4066 164.199 34.1782 163.603 33.4082C163.005 32.6386 162.064 32.2521 160.776 32.2521C159.488 32.2521 158.354 32.6386 157.375 33.4082C156.422 34.1782 155.742 35.4066 155.337 37.0921C155.074 38.1045 154.835 39.0795 154.62 40.0184C154.43 40.9574 154.238 41.9573 154.048 43.0167C153.761 44.702 153.904 45.9305 154.477 46.7004C155.05 47.4718 155.992 47.8568 157.303 47.8568H157.303ZM156.839 53.0569C155.337 53.0569 153.941 52.8534 152.653 52.4434C151.364 52.0349 150.278 51.4201 149.396 50.6017C148.513 49.7831 147.881 48.7598 147.499 47.5313C147.141 46.3029 147.094 44.8711 147.356 43.2327C147.547 42.1982 147.749 41.1623 147.963 40.1264C148.202 39.092 148.441 38.0436 148.68 36.984C149.467 33.7342 150.886 31.2663 152.938 29.5794C154.99 27.8939 157.757 27.0519 161.24 27.0519C162.744 27.0519 164.127 27.2678 165.391 27.7015C166.679 28.1114 167.766 28.7372 168.648 29.5794C169.554 30.4226 170.188 31.4587 170.544 32.6854C170.927 33.9138 170.975 35.3473 170.687 36.984C170.521 38.0435 170.318 39.092 170.079 40.1264C169.865 41.1623 169.638 42.1982 169.399 43.2327C168.589 46.5313 167.157 49.0007 165.105 50.6376C163.053 52.2509 160.298 53.0569 156.839 53.0569Z" fill="#363539"/>
<path d="M170.004 52.6969C169.767 52.6969 169.576 52.6124 169.433 52.4434C169.289 52.2744 169.24 52.0585 169.289 51.794L174.228 28.3162C174.275 28.0501 174.394 27.8343 174.585 27.6653C174.799 27.4963 175.038 27.412 175.301 27.412H179.094C179.476 27.412 179.739 27.4963 179.881 27.6653C180.024 27.8343 180.12 27.9785 180.167 28.099L186.001 42.0777L188.9 28.3162C188.947 28.0501 189.079 27.8343 189.293 27.6653C189.507 27.4963 189.734 27.412 189.973 27.412H194.267C194.531 27.412 194.72 27.4963 194.839 27.6653C194.982 27.8343 195.03 28.0501 194.982 28.3162L190.044 51.794C189.996 52.0349 189.866 52.2508 189.651 52.4434C189.461 52.6124 189.234 52.6969 188.972 52.6969H185.178C184.796 52.6969 184.534 52.6124 184.391 52.4434C184.248 52.2509 184.152 52.107 184.104 52.01L178.2 38.5381L175.372 51.7941C175.326 52.0585 175.193 52.2744 174.979 52.4435C174.788 52.6125 174.562 52.6969 174.299 52.6969H170.004L170.004 52.6969Z" fill="#363539"/>
<path d="M16.4875 69.1563C15.7885 70.5881 13.6504 70.0858 13.6504 68.4896V28.9815C13.6504 28.1489 14.3199 27.4746 15.1458 27.4746H34.4469C35.5549 27.4746 36.2778 28.6452 35.7885 29.6481L16.4875 69.1563V69.1563Z" fill="#363539"/>
<path d="M13.6509 42.5504H1.4976C0.388557 42.5504 -0.334736 41.3751 0.156915 40.3736L19.5488 0.841911C19.8333 0.261327 20.3535 0 20.8716 0C21.6308 0 22.3849 0.561829 22.3849 1.51017V27.4746H15.1463C14.3204 27.4746 13.6509 28.1488 13.6509 28.9814V42.5504Z" fill="#524D52"/>
<path d="M20.889 42.5504H13.6504V28.9814C13.6504 28.1488 14.3199 27.4746 15.1458 27.4746H22.3844V41.0418C22.3844 41.8743 21.7149 42.5504 20.889 42.5504Z" fill="#403C41"/>
</svg>
