<svg width="40" height="40" viewBox="0 0 40 40" fill="none" xmlns="http://www.w3.org/2000/svg">
<g clip-path="url(#clip0_183_540)">
<path d="M14.1784 0.990112H25.8417C36.4952 0.990112 39.01 3.52477 39.01 14.1782V25.8416C39.01 36.4951 36.4754 39.0099 25.8219 39.0099H14.1586C3.50509 39.0099 0.990234 36.4753 0.990234 25.8218V14.1584C0.990234 3.52477 3.52489 0.990112 14.1784 0.990112Z" fill="#5181B8"/>
<path d="M0 5C0 2.23858 2.23858 0 5 0H35C37.7614 0 40 2.23858 40 5V35C40 37.7614 37.7614 40 35 40H5C2.23858 40 0 37.7614 0 35V5Z" fill="#5181B8"/>
<path fill-rule="evenodd" clip-rule="evenodd" d="M32.1177 14.0786C32.2959 13.4846 32.1177 13.0687 31.286 13.0687H28.5138C27.8009 13.0687 27.484 13.445 27.3058 13.8608C27.3058 13.8608 25.8999 17.3063 23.8999 19.5242C23.2464 20.1776 22.9692 20.3757 22.6128 20.3757C22.4345 20.3757 22.1771 20.1776 22.1771 19.5836V14.0786C22.1771 13.3658 21.9791 13.0687 21.385 13.0687H17.0286C16.593 13.0687 16.3157 13.4054 16.3157 13.7024C16.3157 14.3757 17.3058 14.5341 17.4246 16.3955V20.4747C17.4246 21.3658 17.2662 21.5242 16.9098 21.5242C15.9791 21.5242 13.6821 18.0786 12.3355 14.1182C12.0583 13.3856 11.8009 13.0687 11.088 13.0687H8.31573C7.52365 13.0687 7.36523 13.445 7.36523 13.8608C7.36523 14.5935 8.29593 18.237 11.7415 23.0489C14.0385 26.3361 17.2662 28.1182 20.1969 28.1182C21.9593 28.1182 22.1771 27.7222 22.1771 27.0489V24.5539C22.1771 23.7618 22.3355 23.6034 22.9098 23.6034C23.3256 23.6034 24.0187 23.8014 25.6623 25.3856C27.5435 27.2667 27.8603 28.1182 28.9098 28.1182H31.6821C32.4741 28.1182 32.8702 27.7222 32.6326 26.9499C32.3751 26.1776 31.484 25.0489 30.2959 23.7024C29.6425 22.9301 28.6722 22.1182 28.3949 21.7024C27.9791 21.1677 28.0979 20.9301 28.3949 20.4747C28.3949 20.4549 31.7811 15.7024 32.1177 14.0786Z" fill="white"/>
</g>
<defs>
<clipPath id="clip0_183_540">
<rect width="40" height="40" fill="white"/>
</clipPath>
</defs>
</svg>
