<svg width="40" height="40" viewBox="0 0 40 40" fill="none" xmlns="http://www.w3.org/2000/svg">
<path d="M39.1761 6.25882C38.7148 3.81176 37.3639 1.88235 35.6506 1.22353C32.5205 0 19.9999 0 19.9999 0C19.9999 0 7.47937 0 4.34924 1.17647C2.66885 1.83529 1.285 3.81176 0.82372 6.25882C0 10.7294 0 20 0 20C0 20 0 29.3176 0.82372 33.7412C1.285 36.1882 2.6359 38.1176 4.34924 38.7765C7.51232 40 19.9999 40 19.9999 40C19.9999 40 32.5205 40 35.6506 38.8235C37.3639 38.1647 38.7148 36.2353 39.1761 33.7882C39.9998 29.3176 39.9998 20.0471 39.9998 20.0471C39.9998 20.0471 40.0328 10.7294 39.1761 6.25882Z" fill="#FF0000"/>
<path d="M16 15.9996V24.9996L24 20.4996L16 15.9996Z" fill="white"/>
</svg>
