<svg width="12" height="20" viewBox="0 0 12 20" fill="none" xmlns="http://www.w3.org/2000/svg">
<path fill-rule="evenodd" clip-rule="evenodd" d="M0.778498 0.17119C0.195752 0.482749 -0.0707267 1.15082 0.117244 1.8289C0.185371 2.07476 0.296015 2.25165 0.538189 2.50191C0.718887 2.68868 2.60792 4.43904 4.73614 6.3917C6.86436 8.3443 8.60408 9.96239 8.60228 9.98747C8.60048 10.0126 6.87778 11.6089 4.77412 13.5349C-0.0543165 17.9555 0.177663 17.728 0.0583168 18.1588C-0.276102 19.3659 0.892562 20.4208 1.91179 19.832C2.2781 19.6203 11.5398 11.0917 11.7524 10.7701C12.1457 10.1756 12.066 9.46587 11.5447 8.92173C11.3812 8.75098 9.17309 6.70813 6.63791 4.38208C3.17991 1.20939 1.96699 0.13317 1.78225 0.0738061C1.40463 -0.047656 1.13958 -0.021909 0.778498 0.17119Z" fill="url(#paint0_linear_211_49)"/>
<defs>
<linearGradient id="paint0_linear_211_49" x1="1.31121" y1="-1.29119e-07" x2="12.418" y2="0.430555" gradientUnits="userSpaceOnUse">
<stop stop-color="#EB526E"/>
<stop offset="1" stop-color="#EB593F"/>
</linearGradient>
</defs>
</svg>
