<svg width="12" height="20" viewBox="0 0 12 20" fill="none" xmlns="http://www.w3.org/2000/svg">
<path fill-rule="evenodd" clip-rule="evenodd" d="M11.2215 0.17119C11.8042 0.482749 12.0707 1.15082 11.8828 1.8289C11.8146 2.07476 11.704 2.25165 11.4618 2.50191C11.2811 2.68868 9.39208 4.43904 7.26386 6.3917C5.13564 8.3443 3.39592 9.9624 3.39772 9.98747C3.39952 10.0126 5.12222 11.6089 7.22588 13.5349C12.0543 17.9555 11.8223 17.728 11.9417 18.1588C12.2761 19.3659 11.1074 20.4208 10.0882 19.832C9.7219 19.6203 0.460245 11.0917 0.247597 10.7701C-0.145749 10.1756 -0.0659982 9.46587 0.455272 8.92173C0.618814 8.75098 2.82691 6.70813 5.36209 4.38208C8.82009 1.20939 10.033 0.13317 10.2177 0.0738061C10.5954 -0.047656 10.8604 -0.021909 11.2215 0.17119Z" fill="url(#paint0_linear_150_761)"/>
<defs>
<linearGradient id="paint0_linear_150_761" x1="10.6888" y1="-1.29119e-07" x2="-0.41803" y2="0.430555" gradientUnits="userSpaceOnUse">
<stop stop-color="#EB526E"/>
<stop offset="1" stop-color="#EB593F"/>
</linearGradient>
</defs>
</svg>
