<svg width="404" height="786" viewBox="0 0 404 786" fill="none" xmlns="http://www.w3.org/2000/svg">
<path d="M185.317 776.318C177.46 792.39 153.429 786.752 153.429 768.834V325.333C153.429 315.987 160.954 308.418 170.237 308.418H387.17C399.624 308.418 407.749 321.558 402.25 332.816L185.317 776.318Z" fill="white" fill-opacity="0.04"/>
<path d="M153.429 477.652H16.8322C4.36718 477.652 -3.76226 464.459 1.76364 453.216L219.718 9.45093C222.916 2.93355 228.762 0 234.586 0C243.119 0 251.595 6.30684 251.595 16.9526V308.418L170.237 308.418C160.954 308.418 153.429 315.987 153.429 325.333L153.429 477.652Z" fill="white" fill-opacity="0.04"/>
<path d="M234.787 477.652L153.429 477.652L153.429 325.333C153.429 315.987 160.954 308.418 170.237 308.418L251.595 308.418L251.595 460.718C251.595 470.063 244.07 477.652 234.787 477.652Z" fill="white" fill-opacity="0.04"/>
</svg>
