<svg width="25" height="25" viewBox="0 0 25 25" fill="none" xmlns="http://www.w3.org/2000/svg">
<g clip-path="url(#clip0_150_183)">
<path d="M24.2879 19.6389L18.6421 14.5056C18.3752 14.263 18.0245 14.1336 17.664 14.1448C17.3035 14.1559 16.9615 14.3067 16.7101 14.5653L13.3865 17.9833C12.5865 17.8306 10.9782 17.3292 9.32261 15.6778C7.66706 14.0208 7.16567 12.4083 7.01706 11.6139L10.4323 8.28889C10.6912 8.03768 10.8422 7.69559 10.8534 7.33502C10.8645 6.97444 10.735 6.62367 10.4921 6.35695L5.36011 0.712506C5.11712 0.444945 4.77939 0.28265 4.41866 0.260088C4.05793 0.237527 3.70261 0.356475 3.42817 0.591672L0.414281 3.17639C0.174157 3.41739 0.0308354 3.73813 0.0115027 4.07778C-0.00933061 4.42501 -0.406553 12.65 5.97122 19.0306C11.5351 24.5931 18.5046 25 20.424 25C20.7046 25 20.8768 24.9917 20.9226 24.9889C21.2622 24.9699 21.5828 24.8259 21.8226 24.5847L24.4059 21.5695C24.6421 21.2959 24.7619 20.9408 24.7398 20.5801C24.7178 20.2194 24.5556 19.8816 24.2879 19.6389V19.6389Z" fill="url(#paint0_linear_150_183)"/>
</g>
<defs>
<linearGradient id="paint0_linear_150_183" x1="5.90186" y1="39.5851" x2="37.7858" y2="26.2788" gradientUnits="userSpaceOnUse">
<stop offset="0.25693" stop-color="#EFB030"/>
</linearGradient>
<clipPath id="clip0_150_183">
<rect width="25" height="25" fill="white"/>
</clipPath>
</defs>
</svg>
