<svg width="50" height="47" viewBox="0 0 50 47" fill="none" xmlns="http://www.w3.org/2000/svg">
<path d="M49.3293 24.2604C49.2952 22.8951 49.1929 21.5075 48.8861 20.1758C48.3861 18.0273 47.2043 16.2592 44.9543 15.5542C42.4884 14.782 40.2839 15.5094 38.2952 17.0201C38.1929 17.0985 38.102 17.2551 38.102 17.367C38.0907 18.8666 38.0907 20.3549 38.0907 21.8432C38.8179 21.6978 39.4657 21.5075 40.1248 21.4516C41.0111 21.3732 41.8407 21.5523 42.352 22.3804C42.8634 23.1973 43.1816 24.1037 43.1929 25.0549C43.227 28.7142 43.227 32.3735 43.1929 36.0216C43.1816 37.633 42.3179 38.7073 40.7952 39.222C40.6702 39.2668 40.4884 39.4458 40.4884 39.5578C40.477 41.3594 40.4998 43.1611 40.5111 44.9628C40.5111 45.2649 40.6361 45.3992 40.977 45.3992C44.2157 45.4328 47.4657 43.2282 48.5907 40.1956C49.3634 38.1142 49.4543 35.9432 49.4429 33.7611C49.4202 30.6166 49.4202 27.4385 49.3293 24.2604ZM42.9202 7.91109C44.4998 7.74323 46.0907 7.56418 47.6702 7.39632C47.9316 7.37394 48.0679 7.3068 48.0679 7.01585C48.0566 5.20299 48.0679 3.37894 48.0679 1.47656C45.4884 1.76751 42.9998 2.03609 40.5225 2.32704C37.6816 2.65156 34.8975 2.99847 32.0566 3.30061C31.9657 4.45323 31.8748 5.6618 31.7952 6.8368C31.7498 7.57537 31.7157 8.31394 31.6816 9.09728C33.2611 8.92942 34.7725 8.77275 36.2839 8.61609C38.4998 8.38109 40.7043 8.14609 42.9202 7.91109ZM36.6134 26.5208C36.6929 23.3987 36.7611 20.2766 36.852 17.1656C36.8975 15.3863 36.977 13.607 37.0225 11.8166C37.0339 11.2906 37.0225 10.7647 37.0225 10.2163C36.7611 10.2163 36.5793 10.2051 36.4089 10.2163C34.9998 10.2835 33.5907 10.3842 32.1702 10.4178C31.6702 10.4289 31.5566 10.6192 31.5452 11.0444C31.5225 12.0292 31.477 13.0028 31.4429 13.9875C31.2952 17.8482 31.1475 21.7201 31.0111 25.5809C30.9884 26.0956 31.0111 26.6104 31.0111 27.2147C32.8066 27.1587 34.5225 27.1028 36.2498 27.0468C36.6248 27.0356 36.6134 26.7894 36.6134 26.5208ZM38.8179 39.1661C37.4657 39.0206 36.7611 37.7337 36.7157 36.4804C36.6589 34.9697 36.6248 33.4478 36.602 31.937C36.602 31.5566 36.4884 31.3999 36.0679 31.4111C34.5679 31.4558 33.0566 31.4894 31.5452 31.5006C31.1361 31.5006 31.0679 31.6685 31.0793 32.0154C31.102 32.9778 31.0907 33.9401 31.1248 34.9025C31.1702 36.3797 31.1248 37.8792 31.352 39.3339C31.6589 41.1916 32.5793 42.8366 34.1816 43.922C35.602 44.8844 37.2725 45.2649 39.102 45.4775C39.102 43.4185 39.102 41.4489 39.0907 39.4682C39.102 39.3675 38.9316 39.1773 38.8179 39.1661ZM1.29522 23.0406H6.19294C6.19294 21.6082 6.17022 20.243 6.19294 18.8778C6.24976 16.0913 7.04522 15.2297 9.82931 14.8939C9.88612 14.8828 9.93158 14.8268 10.0452 14.7597V10.2051C6.72703 9.83585 3.07931 12.1299 1.88612 15.3192C0.920215 17.837 1.43158 20.4444 1.29522 23.0406ZM9.21567 34.9025C7.03385 34.813 6.38612 34.1304 6.34067 31.9706C6.30658 30.3256 6.34067 28.6806 6.30658 27.0356C6.29522 26.3418 6.21567 25.6368 6.15885 24.9318H1.31794C1.31794 27.4832 1.19294 29.9339 1.34067 32.3735C1.65885 37.3756 4.37476 40.1844 9.14749 40.7551C9.81794 40.8335 10.0679 40.6544 10.0452 39.9942C10.0111 38.573 10.0225 37.1406 10.0452 35.7194C10.0566 35.1039 9.82931 34.9249 9.21567 34.9025ZM21.3861 17.1768C21.3975 18.1951 21.3975 19.2247 21.4089 20.243C21.4089 20.9368 21.4089 21.6306 21.4089 22.3132H26.977C26.977 19.952 27.0793 17.7139 26.9429 15.4982C26.8293 13.5175 25.852 11.8949 24.1134 10.7982C22.3293 9.66799 20.3407 9.50013 18.2952 9.66799C18.102 9.67918 17.7952 9.98132 17.7839 10.1604C17.7384 11.6039 17.7611 13.0587 17.7611 14.547C18.1929 14.5694 18.4998 14.5918 18.8066 14.603C20.6702 14.6701 21.352 15.3528 21.3861 17.1768ZM11.0566 45.5782H16.5793V4.77775C14.6816 4.97918 12.8748 5.16942 11.0566 5.35966V45.5782ZM27.0225 24.2604C25.3975 24.2604 23.8975 24.2828 22.3975 24.2492C21.6929 24.2268 21.4657 24.473 21.4657 25.1668C21.4884 27.1251 21.4202 29.0723 21.4316 31.0306C21.4429 33.5261 20.4657 34.8801 18.0452 35.1151C17.9657 35.1263 17.8861 35.1935 17.8179 35.227V40.3299C22.5793 40.5873 25.6248 38.0918 26.5907 34.4773C27.5111 31.1201 26.8179 27.707 27.0225 24.2604Z" fill="url(#paint0_linear_150_564)"/>
<defs>
<linearGradient id="paint0_linear_150_564" x1="4.25431" y1="23.5261" x2="49.7916" y2="23.5261" gradientUnits="userSpaceOnUse">
<stop offset="0.0344" stop-color="#273580"/>
<stop offset="0.2149" stop-color="#46317C"/>
<stop offset="0.6071" stop-color="#942673"/>
<stop offset="0.8615" stop-color="#CA1E6D"/>
</linearGradient>
</defs>
</svg>
