<svg width="147" height="27" viewBox="0 0 147 27" fill="none" xmlns="http://www.w3.org/2000/svg">
<path d="M3.69201 25.6449C3.28623 25.6449 2.97604 25.5355 2.76117 25.3195C2.57054 25.1019 2.46266 24.8501 2.43905 24.5605L0.00447753 1.33646C-0.0194079 1.02326 0.0522945 0.782349 0.218988 0.61332C0.38637 0.444337 0.600882 0.359985 0.863623 0.359985H5.15989C5.54178 0.359985 5.81644 0.469421 5.98313 0.685246C6.15052 0.87765 6.24583 1.0828 6.26972 1.30029L7.80929 17.9865L16.4015 1.30029C16.4968 1.0828 16.6642 0.877696 16.9026 0.685246C17.1414 0.469421 17.4516 0.359985 17.8334 0.359985H22.6312C22.9174 0.359985 23.0965 0.480462 23.1678 0.721417C23.2638 0.938905 23.2519 1.17986 23.1323 1.44419L10.9598 24.5605C10.8163 24.85 10.6015 25.1019 10.3152 25.3194C10.0525 25.5355 9.70684 25.6449 9.27708 25.6449H3.69192L3.69201 25.6449Z" fill="white"/>
<path d="M30.0541 20.8048C31.3433 20.8048 32.477 20.4199 33.4554 19.6485C34.434 18.8785 35.1261 17.6501 35.5316 15.9647C35.7943 14.9054 36.0211 13.9054 36.212 12.9665C36.4269 12.0276 36.6178 11.0526 36.7846 10.0402C37.0954 8.35467 36.952 7.12624 36.3555 6.3563C35.7584 5.58664 34.8159 5.20013 33.5267 5.20013C32.2379 5.20013 31.1045 5.58664 30.1258 6.3563C29.171 7.12629 28.4905 8.35467 28.085 10.0402C27.8227 11.0526 27.5839 12.0275 27.3687 12.9665C27.1781 13.9054 26.9868 14.9054 26.7962 15.9647C26.5096 17.6501 26.6531 18.8786 27.2256 19.6485C27.7987 20.4199 28.7413 20.8048 30.054 20.8048H30.0541ZM29.5888 26.0049C28.0851 26.0049 26.689 25.8015 25.3998 25.3915C24.1109 24.983 23.025 24.3681 22.142 23.5497C21.259 22.7312 20.6263 21.7078 20.2444 20.4794C19.8864 19.2509 19.8386 17.8191 20.1012 16.1808C20.2922 15.1463 20.4951 14.1104 20.7096 13.0745C20.9484 12.0401 21.1875 10.9916 21.4259 9.93211C22.2137 6.68221 23.6337 4.21431 25.6864 2.52744C27.7387 0.841912 30.5077 0 33.9919 0C35.496 0 36.8802 0.215824 38.1451 0.649553C39.4343 1.05949 40.5202 1.68526 41.4033 2.52744C42.3102 3.37069 42.9425 4.40672 43.3009 5.63344C43.6827 6.86187 43.7306 8.2954 43.444 9.93206C43.277 10.9916 43.074 12.04 42.8352 13.0745C42.6207 14.1103 42.3936 15.1463 42.1551 16.1807C41.3439 19.4794 39.9115 21.9487 37.8592 23.5857C35.8062 25.1989 33.0495 26.0049 29.5888 26.0049H29.5888Z" fill="white"/>
<path d="M42.7612 25.645C42.5228 25.645 42.3319 25.5605 42.1887 25.3915C42.0453 25.2226 41.9975 25.0066 42.0453 24.7421L46.9861 1.26429C47.0336 0.998251 47.1651 0.782425 47.3797 0.613442C47.5949 0.44446 47.8213 0.360107 48.0598 0.360107H52.7858C53.0485 0.360107 53.2517 0.444413 53.3949 0.613442C53.5377 0.782425 53.5855 0.998251 53.5377 1.26429L49.528 20.1899H60.3396C60.6019 20.1899 60.7945 20.2869 60.9125 20.4794C61.0553 20.6484 61.1034 20.8644 61.0553 21.1303L60.3037 24.7421C60.2572 25.0066 60.1251 25.2225 59.9109 25.3915C59.7199 25.5605 59.4931 25.6449 59.2307 25.6449H42.7613L42.7612 25.645Z" fill="white"/>
<path d="M62.3006 25.645C62.0382 25.645 61.8363 25.5605 61.6935 25.3915C61.549 25.2226 61.5009 25.0066 61.549 24.7421L65.5231 6.03101H59.1509C58.9119 6.03101 58.7209 5.948 58.5781 5.77906C58.4349 5.58666 58.3871 5.36912 58.4349 5.12821L59.2582 1.26429C59.3063 0.998251 59.4242 0.782425 59.6155 0.613442C59.8313 0.44446 60.0688 0.360107 60.3328 0.360107H79.5931C79.8558 0.360107 80.0468 0.444413 80.1664 0.613442C80.3091 0.782425 80.3573 0.998251 80.3091 1.26429L79.4859 5.12821C79.4381 5.36917 79.3076 5.58666 79.0917 5.77906C78.9007 5.94804 78.6739 6.03101 78.4116 6.03101H72.0393L68.1011 24.7421C68.0529 25.0066 67.9224 25.2225 67.7065 25.3915C67.5153 25.5605 67.2887 25.645 67.0261 25.645H62.3004H62.3006Z" fill="white"/>
<path d="M85.75 11.6301H89.9025C91.0256 11.6301 91.92 11.3531 92.5878 10.7992C93.2573 10.2452 93.6983 9.48642 93.9125 8.52367C94.1034 7.58502 93.9839 6.82612 93.5555 6.24854C93.15 5.66967 92.3609 5.38155 91.1916 5.38155H87.0747L85.75 11.6301H85.75ZM77.2644 25.645C77.0017 25.645 76.7998 25.5605 76.657 25.3915C76.5374 25.2226 76.5019 25.0066 76.5501 24.7421L81.49 1.26429C81.5381 0.998251 81.6686 0.782425 81.8832 0.613442C82.099 0.444459 82.3365 0.360107 82.6005 0.360107H92.3378C95.4176 0.360107 97.6834 1.08293 99.14 2.5275C100.62 3.94833 101.086 5.97146 100.536 8.59601C100.179 10.3063 99.4615 11.7506 98.3885 12.9305C97.3384 14.1104 96.0854 15.0009 94.6285 15.6033L97.6725 24.4887C97.6957 24.5606 97.708 24.6217 97.708 24.6686C97.708 24.7171 97.6957 24.7891 97.6725 24.8861C97.6492 25.0786 97.5403 25.2602 97.3494 25.4276C97.1598 25.5715 96.9565 25.645 96.7407 25.645H92.0163C91.5613 25.645 91.2522 25.5356 91.0845 25.3195C90.9417 25.0786 90.8344 24.8627 90.763 24.6686L88.3636 16.7222H84.6767L82.9934 24.7422C82.9452 25.0066 82.8147 25.2226 82.6005 25.3916C82.3847 25.5606 82.1456 25.645 81.8832 25.645H77.2644L77.2644 25.645Z" fill="white"/>
<path d="M109.286 20.8048C110.575 20.8048 111.708 20.4199 112.688 19.6485C113.666 18.8785 114.358 17.6501 114.765 15.9647C115.027 14.9054 115.254 13.9054 115.445 12.9665C115.659 12.0276 115.85 11.0526 116.016 10.0402C116.327 8.35467 116.184 7.12624 115.588 6.3563C114.99 5.58664 114.049 5.20013 112.76 5.20013C111.471 5.20013 110.337 5.58664 109.357 6.3563C108.403 7.12629 107.723 8.35467 107.318 10.0402C107.056 11.0526 106.816 12.0275 106.601 12.9665C106.411 13.9054 106.218 14.9054 106.029 15.9647C105.742 17.6501 105.885 18.8786 106.458 19.6485C107.031 20.4199 107.973 20.8048 109.286 20.8048H109.286ZM108.821 26.0049C107.318 26.0049 105.922 25.8015 104.633 25.3915C103.344 24.983 102.257 24.3681 101.374 23.5497C100.491 22.7312 99.8587 21.7078 99.4768 20.4794C99.1182 19.2509 99.0713 17.8191 99.334 16.1808C99.525 15.1463 99.7269 14.1104 99.9411 13.0745C100.18 12.0401 100.419 10.9916 100.658 9.93211C101.446 6.68221 102.865 4.21431 104.918 2.52744C106.971 0.841912 109.739 0 113.224 0C114.729 0 116.113 0.215824 117.377 0.649553C118.666 1.05949 119.753 1.68526 120.635 2.52744C121.542 3.37069 122.176 4.40672 122.533 5.63344C122.915 6.86187 122.963 8.2954 122.676 9.93206C122.509 10.9916 122.306 12.04 122.067 13.0745C121.853 14.1103 121.626 15.1463 121.387 16.1807C120.576 19.4794 119.144 21.9487 117.091 23.5857C115.038 25.1989 112.281 26.0049 108.821 26.0049Z" fill="white"/>
<path d="M121.993 25.645C121.755 25.645 121.564 25.5605 121.421 25.3915C121.277 25.2226 121.229 25.0066 121.277 24.7421L126.219 1.26429C126.265 0.998251 126.385 0.782425 126.576 0.613442C126.79 0.44446 127.029 0.360107 127.292 0.360107H131.087C131.469 0.360107 131.732 0.444413 131.875 0.613442C132.017 0.782425 132.114 0.926649 132.16 1.04713L137.997 15.0258L140.898 1.26429C140.944 0.998251 141.076 0.782425 141.29 0.613442C141.505 0.44446 141.732 0.360107 141.971 0.360107H146.266C146.53 0.360107 146.72 0.444413 146.839 0.613442C146.982 0.782425 147.03 0.998251 146.982 1.26429L142.042 24.7421C141.994 24.983 141.864 25.199 141.649 25.3915C141.458 25.5605 141.232 25.645 140.969 25.645H137.173C136.792 25.645 136.529 25.5605 136.386 25.3915C136.243 25.199 136.147 25.0551 136.099 24.9581L130.192 11.4862L127.363 24.7422C127.317 25.0067 127.184 25.2226 126.97 25.3916C126.779 25.5606 126.552 25.645 126.29 25.645H121.993L121.993 25.645Z" fill="white"/>
</svg>
