<svg width="339" height="122" viewBox="0 0 339 122" fill="none" xmlns="http://www.w3.org/2000/svg">
<g clip-path="url(#clip0_175_278)">
<path d="M42.6599 177.642C40.8512 181.32 35.3193 180.03 35.3193 175.93V74.4449C35.3193 72.3062 37.0516 70.5742 39.1885 70.5742H89.1261C91.993 70.5742 93.8634 73.581 92.5974 76.1572L42.6599 177.642V177.642Z" fill="white" fill-opacity="0.05"/>
<path d="M35.319 109.299H3.87475C1.00532 109.299 -0.866064 106.281 0.405986 103.708L50.5787 2.16263C51.3148 0.671274 52.6606 0 54.0013 0C55.9655 0 57.9167 1.44317 57.9167 3.8792V70.5742H39.1882C37.0513 70.5742 35.319 72.3062 35.319 74.4449V109.299Z" fill="white" fill-opacity="0.05"/>
<path d="M54.0478 109.3H35.3193V74.4449C35.3193 72.3062 37.0516 70.5742 39.1885 70.5742H57.917V105.424C57.917 107.563 56.1847 109.3 54.0478 109.3Z" fill="white" fill-opacity="0.05"/>
</g>
<g clip-path="url(#clip1_175_278)">
<path d="M165.66 177.642C163.851 181.32 158.319 180.03 158.319 175.93V74.4449C158.319 72.3062 160.052 70.5742 162.188 70.5742H212.126C214.993 70.5742 216.863 73.581 215.597 76.1572L165.66 177.642V177.642Z" fill="white" fill-opacity="0.05"/>
<path d="M158.319 109.299H126.875C124.005 109.299 122.134 106.281 123.406 103.708L173.579 2.16263C174.315 0.671274 175.661 0 177.001 0C178.965 0 180.917 1.44317 180.917 3.8792V70.5742H162.188C160.051 70.5742 158.319 72.3062 158.319 74.4449V109.299Z" fill="white" fill-opacity="0.05"/>
<path d="M177.048 109.3H158.319V74.4449C158.319 72.3062 160.052 70.5742 162.188 70.5742H180.917V105.424C180.917 107.563 179.185 109.3 177.048 109.3Z" fill="white" fill-opacity="0.05"/>
</g>
<g clip-path="url(#clip2_175_278)">
<path d="M288.66 177.642C286.851 181.32 281.319 180.03 281.319 175.93V74.4449C281.319 72.3062 283.052 70.5742 285.188 70.5742H335.126C337.993 70.5742 339.863 73.581 338.597 76.1572L288.66 177.642V177.642Z" fill="white" fill-opacity="0.05"/>
<path d="M281.319 109.299H249.875C247.005 109.299 245.134 106.281 246.406 103.708L296.579 2.16263C297.315 0.671274 298.661 0 300.001 0C301.965 0 303.917 1.44317 303.917 3.8792V70.5742H285.188C283.051 70.5742 281.319 72.3062 281.319 74.4449V109.299Z" fill="white" fill-opacity="0.05"/>
<path d="M300.048 109.3H281.319V74.4449C281.319 72.3062 283.052 70.5742 285.188 70.5742H303.917V105.424C303.917 107.563 302.185 109.3 300.048 109.3Z" fill="white" fill-opacity="0.05"/>
</g>
<defs>
<clipPath id="clip0_175_278">
<rect width="93" height="122" fill="white"/>
</clipPath>
<clipPath id="clip1_175_278">
<rect width="93" height="122" fill="white" transform="translate(123)"/>
</clipPath>
<clipPath id="clip2_175_278">
<rect width="93" height="122" fill="white" transform="translate(246)"/>
</clipPath>
</defs>
</svg>
