<svg width="339" height="122" viewBox="0 0 339 122" fill="none" xmlns="http://www.w3.org/2000/svg">
<g clip-path="url(#clip0_175_265)">
<path d="M296.34 177.642C298.149 181.32 303.681 180.03 303.681 175.93V74.4449C303.681 72.3062 301.948 70.5742 299.812 70.5742H249.874C247.007 70.5742 245.137 73.581 246.403 76.1572L296.34 177.642V177.642Z" fill="white" fill-opacity="0.05"/>
<path d="M303.681 109.299H335.125C337.995 109.299 339.866 106.281 338.594 103.708L288.421 2.16263C287.685 0.671274 286.339 0 284.999 0C283.035 0 281.083 1.44317 281.083 3.8792V70.5742H299.812C301.949 70.5742 303.681 72.3062 303.681 74.4449V109.299Z" fill="white" fill-opacity="0.05"/>
<path d="M284.952 109.3H303.681V74.4449C303.681 72.3062 301.948 70.5742 299.812 70.5742H281.083V105.424C281.083 107.563 282.815 109.3 284.952 109.3Z" fill="white" fill-opacity="0.05"/>
</g>
<g clip-path="url(#clip1_175_265)">
<path d="M173.34 177.642C175.149 181.32 180.681 180.03 180.681 175.93V74.4449C180.681 72.3062 178.948 70.5742 176.812 70.5742H126.874C124.007 70.5742 122.137 73.581 123.403 76.1572L173.34 177.642V177.642Z" fill="white" fill-opacity="0.05"/>
<path d="M180.681 109.299H212.125C214.995 109.299 216.866 106.281 215.594 103.708L165.421 2.16263C164.685 0.671274 163.339 0 161.999 0C160.035 0 158.083 1.44317 158.083 3.8792V70.5742H176.812C178.949 70.5742 180.681 72.3062 180.681 74.4449V109.299Z" fill="white" fill-opacity="0.05"/>
<path d="M161.952 109.3H180.681V74.4449C180.681 72.3062 178.948 70.5742 176.812 70.5742H158.083V105.424C158.083 107.563 159.815 109.3 161.952 109.3Z" fill="white" fill-opacity="0.05"/>
</g>
<g clip-path="url(#clip2_175_265)">
<path d="M50.3401 177.642C52.1488 181.32 57.6807 180.03 57.6807 175.93V74.4449C57.6807 72.3062 55.9484 70.5742 53.8115 70.5742H3.87386C1.00703 70.5742 -0.863392 73.581 0.402611 76.1572L50.3401 177.642V177.642Z" fill="white" fill-opacity="0.05"/>
<path d="M57.681 109.299H89.1253C91.9947 109.299 93.8661 106.281 92.594 103.708L42.4213 2.16263C41.6852 0.671274 40.3394 0 38.9987 0C37.0345 0 35.0833 1.44317 35.0833 3.8792V70.5742H53.8118C55.9487 70.5742 57.681 72.3062 57.681 74.4449V109.299Z" fill="white" fill-opacity="0.05"/>
<path d="M38.9522 109.3H57.6807V74.4449C57.6807 72.3062 55.9484 70.5742 53.8115 70.5742H35.083V105.424C35.083 107.563 36.8153 109.3 38.9522 109.3Z" fill="white" fill-opacity="0.05"/>
</g>
<defs>
<clipPath id="clip0_175_265">
<rect width="93" height="122" fill="white" transform="matrix(-1 0 0 1 339 0)"/>
</clipPath>
<clipPath id="clip1_175_265">
<rect width="93" height="122" fill="white" transform="matrix(-1 0 0 1 216 0)"/>
</clipPath>
<clipPath id="clip2_175_265">
<rect width="93" height="122" fill="white" transform="matrix(-1 0 0 1 93 0)"/>
</clipPath>
</defs>
</svg>
