<svg width="130" height="20" viewBox="0 0 130 20" fill="none" xmlns="http://www.w3.org/2000/svg">
<g clip-path="url(#clip0_175_559)">
<path d="M21.212 7.15358L14.6662 6.25001L11.74 0.615564C11.6601 0.461296 11.5286 0.336413 11.3662 0.260503C10.9588 0.0695053 10.4638 0.22867 10.2602 0.615564L7.33398 6.25001L0.788126 7.15358C0.607657 7.17806 0.442657 7.25887 0.316329 7.38131C0.163605 7.5304 0.0794474 7.73098 0.082348 7.93898C0.0852485 8.14697 0.17497 8.34537 0.331798 8.49056L5.06781 12.8762L3.94891 19.0689C3.92267 19.213 3.93945 19.3611 3.99735 19.4966C4.05526 19.6321 4.15196 19.7494 4.27651 19.8353C4.40105 19.9212 4.54844 19.9723 4.70198 19.9827C4.85551 19.9931 5.00904 19.9624 5.14516 19.8941L11.0001 16.9704L16.855 19.8941C17.0148 19.9749 17.2005 20.0019 17.3784 19.9725C17.827 19.899 18.1286 19.495 18.0513 19.0689L16.9323 12.8762L21.6684 8.49056C21.7973 8.37058 21.8823 8.21386 21.9081 8.04245C21.9777 7.61393 21.6632 7.21724 21.212 7.15358Z" fill="#FFCC69"/>
</g>
<g clip-path="url(#clip1_175_559)">
<path d="M48.212 7.15358L41.6662 6.25001L38.74 0.615564C38.6601 0.461296 38.5286 0.336413 38.3662 0.260503C37.9588 0.0695053 37.4638 0.22867 37.2602 0.615564L34.334 6.25001L27.7881 7.15358C27.6077 7.17806 27.4427 7.25887 27.3163 7.38131C27.1636 7.5304 27.0794 7.73098 27.0823 7.93898C27.0852 8.14697 27.175 8.34537 27.3318 8.49056L32.0678 12.8762L30.9489 19.0689C30.9227 19.213 30.9395 19.3611 30.9974 19.4966C31.0553 19.6321 31.152 19.7494 31.2765 19.8353C31.401 19.9212 31.5484 19.9723 31.702 19.9827C31.8555 19.9931 32.009 19.9624 32.1452 19.8941L38.0001 16.9704L43.855 19.8941C44.0148 19.9749 44.2005 20.0019 44.3784 19.9725C44.827 19.899 45.1286 19.495 45.0513 19.0689L43.9323 12.8762L48.6684 8.49056C48.7973 8.37058 48.8823 8.21386 48.9081 8.04245C48.9777 7.61393 48.6632 7.21724 48.212 7.15358Z" fill="#FFCC69"/>
</g>
<g clip-path="url(#clip2_175_559)">
<path d="M75.212 7.15358L68.6662 6.25001L65.74 0.615564C65.6601 0.461296 65.5286 0.336413 65.3662 0.260503C64.9588 0.0695053 64.4638 0.22867 64.2602 0.615564L61.334 6.25001L54.7881 7.15358C54.6077 7.17806 54.4427 7.25887 54.3163 7.38131C54.1636 7.5304 54.0794 7.73098 54.0823 7.93898C54.0852 8.14697 54.175 8.34537 54.3318 8.49056L59.0678 12.8762L57.9489 19.0689C57.9227 19.213 57.9395 19.3611 57.9974 19.4966C58.0553 19.6321 58.152 19.7494 58.2765 19.8353C58.401 19.9212 58.5484 19.9723 58.702 19.9827C58.8555 19.9931 59.009 19.9624 59.1452 19.8941L65.0001 16.9704L70.855 19.8941C71.0148 19.9749 71.2005 20.0019 71.3784 19.9725C71.827 19.899 72.1286 19.495 72.0513 19.0689L70.9323 12.8762L75.6684 8.49056C75.7973 8.37058 75.8823 8.21386 75.9081 8.04245C75.9777 7.61393 75.6632 7.21724 75.212 7.15358Z" fill="#FFCC69"/>
</g>
<g clip-path="url(#clip3_175_559)">
<path d="M102.212 7.15358L95.6662 6.25001L92.74 0.615564C92.6601 0.461296 92.5286 0.336413 92.3662 0.260503C91.9588 0.0695053 91.4638 0.22867 91.2602 0.615564L88.334 6.25001L81.7881 7.15358C81.6077 7.17806 81.4427 7.25887 81.3163 7.38131C81.1636 7.5304 81.0794 7.73098 81.0823 7.93898C81.0852 8.14697 81.175 8.34537 81.3318 8.49056L86.0678 12.8762L84.9489 19.0689C84.9227 19.213 84.9395 19.3611 84.9974 19.4966C85.0553 19.6321 85.152 19.7494 85.2765 19.8353C85.401 19.9212 85.5484 19.9723 85.702 19.9827C85.8555 19.9931 86.009 19.9624 86.1452 19.8941L92.0001 16.9704L97.855 19.8941C98.0148 19.9749 98.2005 20.0019 98.3784 19.9725C98.827 19.899 99.1286 19.495 99.0513 19.0689L97.9323 12.8762L102.668 8.49056C102.797 8.37058 102.882 8.21386 102.908 8.04245C102.978 7.61393 102.663 7.21724 102.212 7.15358Z" fill="#FFCC69"/>
</g>
<g clip-path="url(#clip4_175_559)">
<path d="M129.212 7.15358L122.666 6.25001L119.74 0.615564C119.66 0.461296 119.529 0.336413 119.366 0.260503C118.959 0.0695053 118.464 0.22867 118.26 0.615564L115.334 6.25001L108.788 7.15358C108.608 7.17806 108.443 7.25887 108.316 7.38131C108.164 7.5304 108.079 7.73098 108.082 7.93898C108.085 8.14697 108.175 8.34537 108.332 8.49056L113.068 12.8762L111.949 19.0689C111.923 19.213 111.939 19.3611 111.997 19.4966C112.055 19.6321 112.152 19.7494 112.277 19.8353C112.401 19.9212 112.548 19.9723 112.702 19.9827C112.856 19.9931 113.009 19.9624 113.145 19.8941L119 16.9704L124.855 19.8941C125.015 19.9749 125.2 20.0019 125.378 19.9725C125.827 19.899 126.129 19.495 126.051 19.0689L124.932 12.8762L129.668 8.49056C129.797 8.37058 129.882 8.21386 129.908 8.04245C129.978 7.61393 129.663 7.21724 129.212 7.15358Z" fill="#FFCC69"/>
</g>
<defs>
<clipPath id="clip0_175_559">
<rect width="22" height="20" fill="white"/>
</clipPath>
<clipPath id="clip1_175_559">
<rect width="22" height="20" fill="white" transform="translate(27)"/>
</clipPath>
<clipPath id="clip2_175_559">
<rect width="22" height="20" fill="white" transform="translate(54)"/>
</clipPath>
<clipPath id="clip3_175_559">
<rect width="22" height="20" fill="white" transform="translate(81)"/>
</clipPath>
<clipPath id="clip4_175_559">
<rect width="22" height="20" fill="white" transform="translate(108)"/>
</clipPath>
</defs>
</svg>
