<svg width="11" height="10" viewBox="0 0 11 10" fill="none" xmlns="http://www.w3.org/2000/svg">
<g clip-path="url(#clip0_175_135)">
<path d="M8.51914 1.21248C8.69131 1.04484 8.92042 0.952167 9.15814 0.954006C9.39585 0.955846 9.62357 1.05206 9.79324 1.22234C9.96291 1.39263 10.0613 1.62366 10.0675 1.8667C10.0738 2.10974 9.98755 2.34577 9.82691 2.52498L4.95025 8.76248C4.86639 8.85486 4.76518 8.92899 4.65268 8.98044C4.54017 9.0319 4.41867 9.05962 4.29544 9.06195C4.17222 9.06429 4.0498 9.04118 3.93551 8.99402C3.82121 8.94686 3.71739 8.87662 3.63025 8.78748L0.396247 5.47998C0.306185 5.39416 0.233949 5.29066 0.183848 5.17566C0.133747 5.06066 0.106806 4.93652 0.104635 4.81064C0.102463 4.68476 0.125105 4.55972 0.171208 4.44299C0.217312 4.32625 0.285933 4.22021 0.372978 4.13119C0.460023 4.04216 0.563709 3.97198 0.67785 3.92483C0.791991 3.87768 0.914249 3.85452 1.03733 3.85674C1.16041 3.85896 1.28179 3.88652 1.39424 3.93776C1.50668 3.989 1.60788 4.06287 1.6918 4.15498L4.25114 6.77123L8.49591 1.23998C8.50356 1.23036 8.51172 1.22118 8.52036 1.21248H8.51914Z" fill="url(#paint0_linear_175_135)"/>
</g>
<defs>
<linearGradient id="paint0_linear_175_135" x1="1.19317" y1="0.953979" x2="10.371" y2="1.68262" gradientUnits="userSpaceOnUse">
<stop stop-color="#EB526E"/>
<stop offset="1" stop-color="#EB593F"/>
</linearGradient>
<clipPath id="clip0_175_135">
<rect width="11" height="10" fill="white"/>
</clipPath>
</defs>
</svg>
