<svg width="40" height="40" viewBox="0 0 40 40" fill="none" xmlns="http://www.w3.org/2000/svg">
<circle cx="20" cy="20" r="20" fill="url(#paint0_linear_175_776)"/>
<path d="M16 29C16.55 29 17 28.55 17 28V26H20C20.55 26 21 25.55 21 25C21 24.45 20.55 24 20 24H17V22H21.5C24.72 22 27.29 19.24 26.97 15.96C26.7 13.1 24.14 11 21.26 11H16C15.45 11 15 11.45 15 12V20H14C13.45 20 13 20.45 13 21C13 21.55 13.45 22 14 22H15V24H14C13.45 24 13 24.45 13 25C13 25.55 13.45 26 14 26H15V28C15 28.55 15.45 29 16 29ZM21.5 20H17V13H21.5C23.43 13 25 14.57 25 16.5C25 18.43 23.43 20 21.5 20Z" fill="white"/>
<defs>
<linearGradient id="paint0_linear_175_776" x1="4.37071" y1="-2.58238e-07" x2="41.2949" y2="2.38561" gradientUnits="userSpaceOnUse">
<stop stop-color="#EB526E"/>
<stop offset="1" stop-color="#EB593F"/>
</linearGradient>
</defs>
</svg>
