<svg width="40" height="35" viewBox="0 0 40 35" fill="none" xmlns="http://www.w3.org/2000/svg">
<path fill-rule="evenodd" clip-rule="evenodd" d="M1.58132 0.125256C0.79569 0.388927 0.238067 0.990316 0.068097 1.75708C0.00708617 2.03257 -0.0109042 5.52298 0.00606932 13.779L0.0300826 25.4126L0.248314 25.8433C0.495564 26.3311 0.874535 26.6871 1.39493 26.9204L1.7509 27.08H20.015H38.2792L38.6352 26.9204C39.1555 26.6871 39.5345 26.3311 39.7818 25.8433L40 25.4126V13.5516V1.69054L39.7818 1.2599C39.5345 0.772043 39.1555 0.41606 38.6352 0.18278L38.2792 0.0231673L20.1324 0.00634206C2.87162 -0.00964952 1.96585 -0.00381371 1.58132 0.125256ZM13.8357 31.0589V32.7263H10.5474C7.40614 32.7263 7.24532 32.7331 6.95043 32.8789C6.60337 33.0505 6.32671 33.4871 6.32671 33.8632C6.32671 34.2267 6.58718 34.6404 6.93549 34.8301L7.24751 35H20.0093C32.6451 35 32.774 34.9985 33.0797 34.8474C33.4267 34.6758 33.7034 34.2392 33.7034 33.8632C33.7034 33.4871 33.4267 33.0505 33.0797 32.8789C32.7848 32.7331 32.6239 32.7263 29.4827 32.7263H26.1943V31.0589V29.3916H20.015H13.8357V31.0589Z" fill="url(#paint0_linear_175_727)"/>
<defs>
<linearGradient id="paint0_linear_175_727" x1="4.37071" y1="-2.25958e-07" x2="41.248" y2="2.72294" gradientUnits="userSpaceOnUse">
<stop stop-color="#EB526E"/>
<stop offset="1" stop-color="#EB593F"/>
</linearGradient>
</defs>
</svg>
