<svg width="40" height="30" viewBox="0 0 40 30" fill="none" xmlns="http://www.w3.org/2000/svg">
<path fill-rule="evenodd" clip-rule="evenodd" d="M1.02902 0.0522424C0.847078 0.0869851 0.595224 0.208071 0.469429 0.321199C-0.0168213 0.758563 0.000197164 0.451698 0.000372611 8.80338C0.000460334 17.422 -0.0366469 16.9006 0.606628 17.3198L0.905941 17.5149L13.5606 17.4926L26.2154 17.4704L26.4501 17.2565C26.9566 16.7948 26.9313 17.2414 26.9313 8.76624C26.9313 1.30726 26.9238 0.938523 26.7678 0.653907C26.6779 0.489949 26.4707 0.278754 26.3073 0.184624C26.0142 0.015788 25.841 0.0133067 13.685 0.00115527C6.90622 -0.00551943 1.21104 0.0174142 1.02902 0.0522424ZM29.5612 11.2449C29.5602 14.0393 29.5217 16.4471 29.4725 16.7858C29.233 18.4361 27.8774 19.7585 26.1856 19.9921C25.8206 20.0425 22.4764 20.0793 17.9396 20.0825L10.3077 20.088L10.936 20.2865C12.6936 20.842 14.2659 22.2555 14.9483 23.8938C15.0649 24.1738 15.1881 24.547 15.222 24.7232L15.2836 25.0436H19.873H24.4626L24.6091 24.5516C25.0907 22.9333 26.2868 21.5082 27.8251 20.7196C29.8093 19.7025 32.2314 19.7715 34.1347 20.8993C35.4742 21.6931 36.5828 23.1026 36.9893 24.5291L37.1398 25.0572L38.1701 25.029C39.3253 24.9974 39.5611 24.9024 39.8484 24.353C39.99 24.082 40.0016 23.6158 39.9999 18.2833L39.9979 12.5072L39.7919 12.0184C39.132 10.4535 36.5335 7.94576 34.5193 6.93035C33.3875 6.35975 33.0891 6.3031 31.2137 6.3031H29.563L29.5612 11.2449ZM33.8091 9.55274C34.7607 9.79021 35.4758 10.1864 36.1422 10.8456C37.117 11.8097 37.7638 13.3197 37.8712 14.8818L37.9227 15.6306H34.7955H31.6683V12.5072V9.38373H32.3999C32.8414 9.38373 33.4003 9.45082 33.8091 9.55274ZM0.000372611 21.9324C0.000460334 23.7884 0.0200226 24.0969 0.153888 24.353C0.434603 24.89 0.686281 24.9973 1.73887 25.0292L2.67576 25.0574L2.78568 24.6039C2.84612 24.3545 3.06174 23.8219 3.26491 23.4204C3.56124 22.8345 3.79072 22.5365 4.42698 21.9114C5.29377 21.0597 5.93863 20.6592 7.01806 20.3023L7.67599 20.0847L4.56181 20.0798C1.68457 20.0752 0.545924 20.0199 0.153713 19.8657C0.00993438 19.8092 0.000197164 19.9406 0.000372611 21.9324ZM8.11101 22.5958C7.38431 22.768 6.82964 23.0779 6.2661 23.6265C5.64116 24.2349 5.31071 24.8609 5.16737 25.7075C4.89648 27.3074 5.78415 28.9368 7.32755 29.6725C7.91986 29.9548 7.97241 29.9641 8.99184 29.9641C10.0064 29.9641 10.0661 29.9538 10.6416 29.6793C11.7986 29.1274 12.6226 28.0301 12.8006 26.8042C13.1801 24.1904 10.7153 21.9786 8.11101 22.5958ZM30.0016 22.5704C29.0272 22.756 27.9152 23.5611 27.4287 24.4331C26.359 26.3501 27.1086 28.6794 29.1045 29.6417C29.6846 29.9214 29.8503 29.9609 30.5692 29.9916C31.1585 30.0168 31.519 29.9867 31.8897 29.8816C32.9229 29.5887 33.8432 28.804 34.3202 27.8094C34.68 27.0595 34.7536 25.9534 34.4964 25.1631C33.8862 23.2879 31.9865 22.1922 30.0016 22.5704Z" fill="url(#paint0_linear_175_796)"/>
<defs>
<linearGradient id="paint0_linear_175_796" x1="4.37071" y1="-1.93678e-07" x2="41.1759" y2="3.17056" gradientUnits="userSpaceOnUse">
<stop stop-color="#EB526E"/>
<stop offset="1" stop-color="#EB593F"/>
</linearGradient>
</defs>
</svg>
