<svg width="40" height="40" viewBox="0 0 40 40" fill="none" xmlns="http://www.w3.org/2000/svg">
<path fill-rule="evenodd" clip-rule="evenodd" d="M11.6366 0.092562C11.5292 0.135445 11.3588 0.247457 11.2579 0.341503C10.8345 0.736513 10.8549 0.288387 10.8549 9.20652V17.4787L11.0314 17.7441C11.1285 17.8901 11.3659 18.0893 11.5589 18.1867L11.9098 18.3638L20.078 18.3429C28.1579 18.3222 28.2491 18.3203 28.5194 18.1615C28.6698 18.0733 28.872 17.8835 28.9689 17.7399L29.145 17.4787V9.18293V0.88719L28.9691 0.628953C28.8724 0.486947 28.694 0.297214 28.5727 0.207308C28.358 0.048351 28.2611 0.0432737 24.9995 0.0219493L21.647 0L21.6246 2.8017L21.6023 5.6034L21.3886 5.90905C21.2711 6.07715 21.0451 6.30258 20.8862 6.40998C20.6407 6.57612 20.5084 6.60526 20 6.60526C19.4915 6.60526 19.3592 6.57612 19.1137 6.40998C18.9548 6.30258 18.7288 6.07715 18.6113 5.90905L18.3976 5.6034L18.3753 2.80412L18.3529 0.00484291L15.0924 0.00976393C13.1212 0.0128103 11.7547 0.045539 11.6366 0.092562ZM0.921552 21.7164C0.572087 21.8222 0.299378 22.0455 0.141098 22.3556C-0.00819244 22.648 -0.0113189 22.8501 0.00884701 30.9302C0.0292475 39.1502 0.030498 39.2068 0.190575 39.421C0.279212 39.5397 0.448824 39.7092 0.567553 39.7978C0.781954 39.9577 0.838621 39.959 9.06399 39.9794C17.1869 39.9996 17.3503 39.997 17.6483 39.8452C17.8153 39.76 18.0346 39.5574 18.1357 39.395L18.3195 39.0996L18.3427 31.0932C18.3554 26.6897 18.3441 22.9346 18.3174 22.7487C18.2562 22.3214 17.8359 21.8338 17.4325 21.7218C17.2614 21.6743 15.8866 21.6424 14.001 21.6422L10.8549 21.6417V24.1848C10.8549 27.155 10.8341 27.294 10.3093 27.8184C9.48638 28.6408 8.21287 28.4425 7.69896 27.4119L7.49393 27.0007V24.3212V21.6417L4.30881 21.6484C2.55695 21.6521 1.0327 21.6827 0.921552 21.7164ZM22.5299 21.7267C22.1628 21.8331 21.7408 22.342 21.6825 22.7487C21.6558 22.9346 21.6445 26.6897 21.6572 31.0932L21.6805 39.0996L21.8525 39.376C21.9471 39.528 22.1637 39.7306 22.334 39.8262L22.6434 40L30.93 39.9794C39.1614 39.959 39.218 39.9577 39.4324 39.7978C39.5511 39.7092 39.7207 39.5397 39.8093 39.421C39.9694 39.2068 39.9707 39.1502 39.9911 30.9302C40.0113 22.8126 40.0087 22.6493 39.8568 22.3515C39.7715 22.1846 39.5688 21.9654 39.4062 21.8644L39.1107 21.6808L35.8083 21.658L32.506 21.6353V24.318V27.0007L32.301 27.4119C31.787 28.4425 30.5135 28.6408 29.6906 27.8184C29.1658 27.294 29.145 27.155 29.145 24.1848V21.6417L25.9599 21.6487C24.208 21.6526 22.6646 21.6877 22.5299 21.7267Z" fill="url(#paint0_linear_175_795)"/>
<defs>
<linearGradient id="paint0_linear_175_795" x1="4.37071" y1="-2.58238e-07" x2="41.2949" y2="2.38561" gradientUnits="userSpaceOnUse">
<stop stop-color="#EB526E"/>
<stop offset="1" stop-color="#EB593F"/>
</linearGradient>
</defs>
</svg>
