<svg width="40" height="40" viewBox="0 0 40 40" fill="none" xmlns="http://www.w3.org/2000/svg">
<path fill-rule="evenodd" clip-rule="evenodd" d="M19.424 0.140586C18.7263 0.510112 0.329225 12.8556 0.191843 13.0464C-0.0118045 13.3293 -0.0620318 13.8722 0.08333 14.2197C0.147796 14.374 0.333449 14.6015 0.495866 14.7254C0.789641 14.9494 0.79809 14.9508 2.06887 14.9754L3.34662 15.0003V26.878C3.34662 38.4123 3.35092 38.7641 3.49589 39.0457C3.57804 39.2051 3.7453 39.4305 3.86751 39.5465C4.26056 39.9191 4.57875 40 5.65081 40H6.63009L6.65082 30.4453L6.67163 20.8906L6.84383 20.6141C6.93849 20.462 7.1545 20.2597 7.32388 20.1647L7.63174 19.9918H20.005C32.1588 19.9918 32.3836 19.9945 32.6802 20.1457C32.8463 20.2303 33.0649 20.4325 33.166 20.5951L33.35 20.8906L33.3708 30.4453L33.3915 40L34.3878 39.9983C35.4918 39.9964 35.827 39.9021 36.221 39.4823C36.7054 38.9662 36.675 39.8131 36.675 26.833V14.9897H37.851C39.1978 14.9897 39.4301 14.9278 39.7745 14.4766C39.9626 14.2302 40 14.1067 40 13.7315C40 13.4035 39.9569 13.222 39.8408 13.061C39.7522 12.9383 35.4239 10.0011 30.0838 6.43989C21.2188 0.528011 20.4574 0.0368712 20.1115 0.00709337C19.8341 -0.0168227 19.6558 0.0178009 19.424 0.140586ZM15.4978 21.7475C14.9946 21.966 14.9968 21.9474 15.021 25.9305L15.0428 29.5235L15.2598 29.7402L15.4767 29.9568H20.0108H24.5449L24.7618 29.7402L24.9788 29.5235L25.0006 25.9305C25.0198 22.7658 25.0076 22.3088 24.8976 22.0964C24.688 21.6914 24.4186 21.6331 22.7585 21.6331H21.2764L21.2499 22.4873C21.2277 23.2058 21.1974 23.3767 21.0598 23.562C20.4902 24.329 19.5315 24.329 18.9618 23.562C18.8242 23.3767 18.7939 23.2058 18.7717 22.4873L18.7452 21.6331L17.2461 21.6361C16.1464 21.6384 15.6805 21.668 15.4978 21.7475ZM9.63058 31.7633C9.1402 32.0048 9.13605 32.0391 9.13605 35.8134C9.13605 39.5594 9.14575 39.6452 9.59545 39.8776C9.80223 39.9844 10.3871 40 14.1858 40C18.1072 40 18.5612 39.9871 18.7598 39.8699C18.8812 39.7983 19.0186 39.656 19.0653 39.5536C19.1224 39.4284 19.1502 38.1947 19.1502 35.7864C19.1502 32.2925 19.1463 32.2004 18.9895 32.0013C18.7392 31.6835 18.3894 31.6266 16.8423 31.6527L15.434 31.6763L15.3949 32.536C15.3619 33.2617 15.3286 33.4338 15.1813 33.6401C14.8234 34.1413 14.0143 34.297 13.5093 33.9617C13.0674 33.6684 12.8914 33.213 12.8914 32.3631V31.6372L11.3853 31.639C10.1783 31.6404 9.82992 31.6651 9.63058 31.7633ZM21.3704 31.7486C20.8555 31.9744 20.8714 31.8456 20.8714 35.7932C20.8714 38.1966 20.8992 39.4284 20.9563 39.5536C21.003 39.656 21.1404 39.7983 21.2618 39.8699C21.4604 39.9871 21.9144 40 25.8358 40C29.6345 40 30.2194 39.9844 30.4262 39.8776C30.8758 39.6452 30.8856 39.5594 30.8856 35.8134C30.8856 32.0228 30.8826 31.9994 30.3787 31.7604C30.1702 31.6617 29.8239 31.6372 28.6333 31.6372H27.148L27.1183 32.4388C27.0847 33.345 26.9591 33.6584 26.5081 33.9621C26.0097 34.2977 25.1979 34.1409 24.8403 33.6401C24.693 33.4338 24.6597 33.2617 24.6267 32.536L24.5876 31.6763L23.1011 31.6589C21.9822 31.6459 21.5542 31.6681 21.3704 31.7486Z" fill="url(#paint0_linear_175_793)"/>
<defs>
<linearGradient id="paint0_linear_175_793" x1="4.37071" y1="-2.58238e-07" x2="41.2949" y2="2.38561" gradientUnits="userSpaceOnUse">
<stop stop-color="#EB526E"/>
<stop offset="1" stop-color="#EB593F"/>
</linearGradient>
</defs>
</svg>
