<svg width="40" height="40" viewBox="0 0 40 40" fill="none" xmlns="http://www.w3.org/2000/svg">
<path fill-rule="evenodd" clip-rule="evenodd" d="M22.5235 0.112673C20.1992 0.6119 18.1334 2.55434 17.3657 4.96247C17.0722 5.88308 16.9801 6.54547 16.9794 7.73827L16.9787 8.72201L14.2259 8.74698C11.4862 8.77194 11.4718 8.77295 11.218 8.9678C10.7709 9.3111 10.7357 9.47308 10.4132 12.6725C10.2472 14.3183 10.095 15.7879 10.0748 15.9381L10.0381 16.2113L15.7146 16.2125C21.9049 16.2139 21.9635 16.2179 22.786 16.6969C23.6121 17.1779 24.3645 18.2385 24.5287 19.1533C24.5578 19.3151 24.9713 22.3602 25.4478 25.9201L26.314 32.3926L32.8541 32.4142L39.3941 32.4356L39.3504 32.12C39.3264 31.9463 38.8004 26.816 38.1815 20.7192C36.925 8.34047 37.0646 9.25646 36.3803 8.89685C36.0828 8.7405 35.8976 8.73 33.4322 8.73H30.8016L30.8006 7.70027C30.7994 6.48738 30.6235 5.44572 30.2679 4.54637C29.366 2.26509 27.4249 0.565836 25.1966 0.106957C24.4931 -0.0379612 23.212 -0.0351872 22.5235 0.112673ZM24.9867 2.63722C26.5932 3.07761 27.9608 4.57613 28.3413 6.31296C28.4065 6.61036 28.457 7.24938 28.4576 7.78433L28.4588 8.73H29.6302H30.8016V11.2193C30.8016 13.6228 30.7958 13.7199 30.6311 14.0353C30.411 14.4567 29.9004 14.7401 29.4903 14.6684C29.1677 14.6121 28.8957 14.4188 28.6589 14.0776C28.5058 13.857 28.4967 13.7197 28.4751 11.2878L28.4523 8.73H23.8902H19.3281L19.3053 11.2878C19.2837 13.7197 19.2746 13.857 19.1215 14.0776C18.7045 14.6784 18.1675 14.8334 17.6117 14.5133C16.9903 14.1555 16.9787 14.0956 16.9787 11.2321V8.73H18.1502H19.3216L19.3228 7.78433C19.3249 6.07053 19.6799 5.05997 20.6461 4.01815C21.3358 3.27447 21.7972 2.96505 22.6016 2.70674C23.309 2.47953 24.3056 2.45053 24.9867 2.63722ZM3.36037 18.8193C3.09656 18.9051 2.79168 19.193 2.65048 19.4896C2.59543 19.6051 1.97652 24.0309 1.27514 29.3245L0 38.9493L0.152677 39.2844C0.236629 39.4687 0.424761 39.7051 0.570722 39.8098L0.83609 40H12.4102H23.9842L24.2428 39.8109C24.385 39.7068 24.5734 39.4716 24.6613 39.2882L24.8212 38.9546L23.5402 29.2946C22.1612 18.8956 22.2451 19.3719 21.7173 18.9509C21.4969 18.7751 21.4954 18.7751 12.5411 18.7605C7.61548 18.7526 3.48415 18.779 3.36037 18.8193ZM8.45071 22.2135C8.89937 22.4648 9.02058 22.7033 9.14061 23.5717C9.20426 24.0321 9.33679 24.5791 9.44362 24.822C10.0546 26.2124 11.5164 27.0636 12.866 26.8151C14.4216 26.5285 15.4866 25.2973 15.6615 23.5835C15.7383 22.8318 15.8499 22.5971 16.2831 22.2771C16.5021 22.1152 16.6227 22.0867 16.9648 22.1163C17.3174 22.1468 17.4239 22.1991 17.6677 22.4618L17.9549 22.7714L17.9504 23.6733C17.9467 24.4215 17.9109 24.6839 17.7403 25.2137C17.3263 26.4991 16.4784 27.6828 15.4603 28.3967C13.2997 29.912 10.4953 29.6504 8.62776 27.7594C7.89319 27.0156 7.45195 26.3111 7.13488 25.376C6.8806 24.6261 6.7355 23.5026 6.83258 23.0349C6.98299 22.3102 7.84337 21.8734 8.45071 22.2135ZM26.6894 35.2296C27.0712 37.5863 27.1664 38.926 27.0091 39.7268L26.9554 40H33.0841H39.2128L39.4782 39.8098C39.6242 39.7051 39.8106 39.4723 39.8925 39.2922C40.0397 38.9688 40.0394 38.9445 39.8688 37.2339C39.7738 36.2818 39.6765 35.3799 39.6526 35.2296L39.609 34.9565H33.1271H26.6452L26.6894 35.2296Z" fill="url(#paint0_linear_175_791)"/>
<defs>
<linearGradient id="paint0_linear_175_791" x1="4.37071" y1="-2.58238e-07" x2="41.2949" y2="2.38561" gradientUnits="userSpaceOnUse">
<stop stop-color="#EB526E"/>
<stop offset="1" stop-color="#EB593F"/>
</linearGradient>
</defs>
</svg>
