<svg width="40" height="35" viewBox="0 0 40 35" fill="none" xmlns="http://www.w3.org/2000/svg">
<path fill-rule="evenodd" clip-rule="evenodd" d="M28.4352 0.0777336C28.3278 0.119993 27.5716 0.817747 26.7548 1.62817C25.6582 2.71624 25.1676 3.14858 24.8795 3.28097C24.5024 3.45438 24.3974 3.46179 21.7157 3.50389C18.7686 3.5502 18.7986 3.54646 17.9576 3.9689C17.7295 4.08344 16.714 5.03818 14.943 6.80296C12.6543 9.08389 12.2588 9.51155 12.1765 9.7956C12.0246 10.3194 12.1684 10.6678 12.7283 11.1329C13.3601 11.6574 13.9188 11.8635 14.8169 11.9033C15.8993 11.9512 16.4085 11.7572 17.4739 10.8911C18.9814 9.66547 20.4053 9.58703 22.0941 10.6365C23.2064 11.3277 23.9286 11.5562 24.9973 11.5553C26.1021 11.5543 26.9848 11.2203 27.7661 10.5078L28.2128 10.1005L32.2114 14.0902C34.4107 16.2845 36.2368 18.0799 36.2694 18.0799C36.302 18.0799 36.3194 17.5448 36.3082 16.8909C36.28 15.2561 36.2327 15.3426 38.2789 13.2851C39.6439 11.9125 39.9162 11.6011 39.9609 11.3611C40.0827 10.7071 40.2585 10.9084 34.7372 5.38234C31.7501 2.39266 29.462 0.162877 29.3167 0.0998771C29.0282 -0.0251868 28.7164 -0.0330618 28.4352 0.0777336ZM10.5034 0.294802C10.3744 0.375813 7.97729 2.73526 5.17633 5.53797C0.624687 10.0924 0.0778247 10.6657 0.0289126 10.9336C-0.0800067 11.5298 0.0639168 11.7581 1.42971 13.1562C2.12721 13.8702 2.81167 14.6014 2.95075 14.7811C3.25672 15.1765 3.7417 16.2002 3.98446 16.9631L4.16253 17.5227L4.62087 17.1088C5.14992 16.6311 5.77569 16.2789 6.43101 16.0901C7.07562 15.9044 8.29858 15.9603 8.92818 16.2043C9.93901 16.5958 10.8894 17.4954 11.21 18.3643C11.2867 18.5724 11.3711 18.7681 11.3975 18.7993C11.4237 18.8305 11.7008 18.7674 12.0131 18.659C12.6473 18.4389 13.5651 18.3937 14.2573 18.5485C15.6756 18.8657 16.9631 20.164 17.2685 21.5849C17.3969 22.1819 17.3224 23.3228 17.1185 23.8851C17.0259 24.1404 16.9763 24.3715 17.0084 24.3985C17.0404 24.4256 17.2345 24.5093 17.4395 24.5846C18.6776 25.0393 19.6948 26.4329 19.834 27.8651L19.8795 28.333L20.3874 28.3841C21.5188 28.4981 22.1564 28.8791 23.6298 30.3223C24.2315 30.9117 24.8293 31.4461 24.9582 31.5098C25.7717 31.9124 26.7694 31.6093 27.2338 30.8186C27.4999 30.3654 27.5338 29.658 27.3099 29.2296C27.2315 29.0795 26.4348 28.2184 25.5396 27.3162C24.6444 26.4138 23.8749 25.5782 23.8296 25.4593C23.4702 24.5159 24.2846 23.6347 25.2844 23.8851C25.4237 23.92 26.1104 24.5404 27.1838 25.6012C28.1084 26.515 28.988 27.325 29.1384 27.4011C29.8343 27.7533 30.8417 27.4691 31.2995 26.7917C31.6061 26.3379 31.6828 25.9185 31.5561 25.3873C31.4644 25.0027 31.3651 24.8852 29.7543 23.2572C28.8167 22.3095 28.0134 21.4389 27.969 21.3224C27.611 20.3829 28.4275 19.5038 29.4267 19.7528C29.5683 19.788 30.2569 20.4111 31.3652 21.5067C33.2091 23.3294 33.3299 23.4138 34.0835 23.4044C34.6165 23.3978 35.1343 23.1126 35.4433 22.6553C35.7739 22.166 35.842 21.6965 35.6647 21.1287C35.5338 20.7093 35.3819 20.5455 31.8451 17.0116L28.1617 13.3312L27.478 13.6684C26.5407 14.1307 25.7416 14.2902 24.5967 14.2436C23.1966 14.1866 22.1403 13.7636 21.0059 12.8054C20.1363 12.0709 19.6902 12.069 18.8489 12.796C17.73 13.7628 16.6656 14.1824 15.1854 14.2404C14.0716 14.2839 13.2884 14.126 12.3587 13.6705C10.5402 12.7796 9.59904 11.2732 9.83267 9.62734C9.9887 8.52765 10.1525 8.30598 12.6754 5.7789L14.9555 3.49508L13.2727 1.82091L11.5899 0.146815L11.1638 0.147127C10.8812 0.147283 10.6589 0.197028 10.5034 0.294802ZM7.16063 18.3229C6.64588 18.4404 6.4732 18.5806 4.94599 20.1206C3.3061 21.7741 3.23352 21.8865 3.29118 22.6814C3.3522 23.5236 3.97329 24.1404 4.8391 24.2188C5.62357 24.2898 5.74124 24.2144 7.40636 22.573C8.35311 21.6399 8.97389 20.965 9.065 20.7699C9.25338 20.3667 9.25494 19.6974 9.06843 19.2877C8.75144 18.5915 7.89064 18.1561 7.16063 18.3229ZM12.9255 20.8038C12.7966 20.8351 12.5857 20.9167 12.4567 20.9851C12.3278 21.0535 11.1804 22.1559 9.90697 23.4347C7.37753 25.9749 7.37198 25.9824 7.4323 26.8138C7.49364 27.6605 8.10301 28.2718 8.96319 28.3496C9.80446 28.4258 9.80508 28.4254 12.3648 25.8873C13.7025 24.561 14.7646 23.4439 14.858 23.2649C15.0545 22.8887 15.0734 22.224 14.8995 21.8158C14.7205 21.3957 14.2484 20.9808 13.7971 20.8471C13.3734 20.7215 13.2828 20.717 12.9255 20.8038ZM15.0352 26.7275C14.56 26.9484 11.7623 29.8036 11.6362 30.1961C11.4909 30.648 11.5784 31.3568 11.8254 31.7292C12.2525 32.3731 13.1183 32.6674 13.8744 32.4255C14.2648 32.3006 17.1271 29.5059 17.3472 29.0347C17.6454 28.3965 17.4807 27.5007 16.9788 27.0311C16.4917 26.5753 15.6463 26.4432 15.0352 26.7275ZM19.1763 30.8575C18.7211 31.066 17.556 32.3049 17.4358 32.7083C17.2436 33.3531 17.3635 33.9162 17.7946 34.3933C18.3211 34.9761 19.1312 35.1611 19.8014 34.8516C20.2432 34.6477 21.4319 33.4045 21.5602 33.0124C21.8439 32.1444 21.4616 31.2288 20.6608 30.8589C20.255 30.6714 19.5842 30.6708 19.1763 30.8575Z" fill="url(#paint0_linear_175_788)"/>
<defs>
<linearGradient id="paint0_linear_175_788" x1="4.37071" y1="-2.25958e-07" x2="41.248" y2="2.72294" gradientUnits="userSpaceOnUse">
<stop stop-color="#EB526E"/>
<stop offset="1" stop-color="#EB593F"/>
</linearGradient>
</defs>
</svg>
