<svg width="298" height="810" viewBox="0 0 298 810" fill="none" xmlns="http://www.w3.org/2000/svg">
<g clip-path="url(#clip0_175_58)">
<path d="M220.412 853.472C218.486 857.416 212.598 856.032 212.598 851.636V742.822C212.598 740.528 214.442 738.671 216.716 738.671H269.876C272.928 738.671 274.919 741.895 273.571 744.657L220.412 853.472V853.472Z" fill="white" fill-opacity="0.05"/>
<path d="M212.598 780.193H179.125C176.07 780.193 174.078 776.957 175.432 774.198L228.842 665.319C229.625 663.72 231.058 663 232.485 663C234.576 663 236.653 664.547 236.653 667.159V738.671H216.716C214.442 738.671 212.598 740.528 212.598 742.821V780.193Z" fill="white" fill-opacity="0.05"/>
<path d="M232.534 780.193H212.598V742.822C212.598 740.528 214.442 738.671 216.716 738.671H236.653V776.039C236.653 778.332 234.809 780.193 232.534 780.193Z" fill="white" fill-opacity="0.05"/>
</g>
<path d="M155.192 586C153.834 586 152.744 585.519 151.928 584.556C151.103 583.594 150.828 582.364 151.103 580.858L179.324 447.149C179.59 445.634 180.273 444.405 181.363 443.443C182.586 442.48 183.953 442 185.452 442H207.126C209.309 442 210.807 442.48 211.623 443.443C212.438 444.405 212.988 445.227 213.254 445.913L246.584 525.523L263.15 447.149C263.415 445.634 264.17 444.405 265.393 443.443C266.618 442.48 267.913 442 269.277 442H293.81C295.317 442 296.398 442.48 297.081 443.443C297.897 444.405 298.172 445.634 297.897 447.149L269.687 580.858C269.412 582.23 268.666 583.46 267.441 584.556C266.351 585.519 265.057 586 263.557 586H241.883C239.702 586 238.203 585.519 237.386 584.556C236.571 583.46 236.021 582.64 235.746 582.088L202.017 505.364L185.859 580.858C185.594 582.364 184.839 583.594 183.616 584.557C182.525 585.519 181.23 586 179.73 586H155.192L155.192 586Z" fill="white" fill-opacity="0.05"/>
<path d="M214.653 336.205C221.999 336.205 228.457 334.073 234.04 329.802C239.615 325.538 243.554 318.736 245.872 309.403C247.367 303.537 248.659 298 249.748 292.801C250.968 287.602 252.058 282.203 253.004 276.597C254.773 267.263 253.96 260.461 250.561 256.197C247.155 251.936 241.793 249.795 234.447 249.795C227.104 249.795 220.644 251.936 215.06 256.197C209.627 260.461 205.753 267.263 203.442 276.597C201.947 282.203 200.585 287.601 199.355 292.801C198.275 298 197.177 303.537 196.099 309.403C194.462 318.736 195.276 325.539 198.542 329.802C201.806 334.073 207.177 336.205 214.653 336.205H214.653ZM212.008 365C203.442 365 195.487 363.873 188.143 361.603C180.798 359.341 174.605 355.936 169.577 351.405C164.544 346.872 160.941 341.205 158.765 334.403C156.722 327.6 156.455 319.672 157.952 310.6C159.04 304.871 160.19 299.135 161.411 293.399C162.773 287.671 164.135 281.865 165.498 275.998C169.984 258.002 178.073 244.336 189.771 234.996C201.468 225.662 217.238 221 237.095 221C245.668 221 253.553 222.195 260.756 224.597C268.1 226.867 274.293 230.332 279.321 234.996C284.489 239.665 288.099 245.402 290.133 252.195C292.311 258.997 292.585 266.935 290.947 275.998C290.001 281.865 288.843 287.671 287.478 293.399C286.258 299.135 284.965 304.871 283.603 310.599C278.984 328.866 270.825 342.539 259.127 351.604C247.43 360.537 231.723 365 212.008 365Z" fill="white" fill-opacity="0.05"/>
<path d="M208.516 64.1835H232.166C238.562 64.1835 243.656 62.6061 247.459 59.4514C251.272 56.2967 253.784 51.9752 255.004 46.4922C256.091 41.1466 255.41 36.8246 252.971 33.5352C250.661 30.2384 246.167 28.5976 239.507 28.5976H216.06L208.515 64.1835H208.516ZM160.186 144C158.69 144 157.541 143.519 156.727 142.556C156.046 141.594 155.844 140.364 156.118 138.858L184.253 5.14941C184.527 3.63429 185.271 2.40514 186.493 1.44277C187.722 0.480393 189.074 0 190.578 0H246.035C263.576 0 276.481 4.11652 284.777 12.3435C293.207 20.4353 295.86 31.9572 292.728 46.9042C290.693 56.6445 286.608 64.8702 280.496 71.5894C274.516 78.3095 267.38 83.3805 259.082 86.8117L276.419 137.415C276.551 137.824 276.621 138.172 276.621 138.439C276.621 138.715 276.551 139.126 276.419 139.678C276.286 140.774 275.666 141.808 274.578 142.762C273.498 143.581 272.341 144 271.112 144H244.205C241.613 144 239.852 143.377 238.898 142.146C238.084 140.774 237.473 139.545 237.066 138.439L223.401 93.1839H202.403L192.815 138.858C192.541 140.364 191.798 141.594 190.578 142.557C189.349 143.519 187.987 144 186.493 144H160.187L160.186 144Z" fill="white" fill-opacity="0.05"/>
<g clip-path="url(#clip1_175_58)">
<path d="M26.4714 810.001C24.9517 810.001 23.7823 809.512 22.9552 808.535C22.1185 807.558 21.8397 806.309 22.1185 804.779L45.1361 696.561H8.22904C6.84428 696.561 5.73805 696.081 4.91092 695.104C4.08193 693.991 3.80496 692.733 4.08191 691.34L8.85008 668.992C9.12889 667.453 9.81187 666.205 10.9197 665.228C12.1698 664.25 13.5452 663.763 15.0742 663.763H126.628C128.15 663.763 129.256 664.25 129.948 665.228C130.775 666.205 131.054 667.453 130.775 668.992L126.007 691.34C125.73 692.733 124.974 693.991 123.724 695.104C122.618 696.081 121.304 696.561 119.785 696.561H82.8773L60.0673 804.779C59.7884 806.309 59.0325 807.557 57.7821 808.535C56.6743 809.512 55.3623 810.001 53.8411 810.001H26.4705H26.4714Z" fill="white" fill-opacity="0.05"/>
</g>
<path d="M17.2001 588C15.8355 588 14.7427 587.519 13.9236 586.557C13.1026 585.594 12.829 584.364 13.1026 582.858L41.379 449.149C41.6509 447.634 42.4034 446.405 43.6313 445.443C44.8629 444.48 46.159 444 47.5236 444H74.5705C76.0739 444 77.237 444.48 78.0561 445.443C78.8734 446.405 79.1471 447.634 78.8734 449.149L55.9261 556.933H117.801C119.302 556.933 120.404 557.485 121.079 558.582C121.897 559.544 122.172 560.774 121.897 562.289L117.595 582.858C117.329 584.364 116.573 585.594 115.347 586.556C114.254 587.519 112.956 588 111.455 588H17.2004L17.2001 588Z" fill="white" fill-opacity="0.05"/>
<path d="M57.6584 337.205C65.0037 337.205 71.4635 335.073 77.0378 330.802C82.614 326.538 86.5573 319.736 88.8675 310.403C90.3643 304.537 91.6568 299 92.7445 293.801C93.9688 288.602 95.0567 283.203 96.0068 277.597C97.7778 268.263 96.9605 261.461 93.5621 257.197C90.16 252.936 84.7899 250.795 77.4446 250.795C70.1008 250.795 63.643 252.936 58.0666 257.197C52.6265 261.461 48.7496 268.263 46.4392 277.597C44.9445 283.203 43.5841 288.601 42.3577 293.801C41.2716 299 40.1817 304.537 39.0956 310.403C37.4628 319.736 38.2801 326.539 41.5422 330.802C44.8079 335.073 50.1782 337.205 57.6578 337.205H57.6584ZM55.0073 366C46.4394 366 38.4849 364.873 31.1395 362.603C23.7957 360.341 17.6084 356.936 12.5774 352.405C7.5461 347.872 3.94133 342.205 1.76541 335.403C-0.274416 328.6 -0.546875 320.672 0.949625 311.6C2.03758 305.871 3.19373 300.135 4.41595 294.399C5.77636 288.671 7.13885 282.865 8.49743 276.998C12.9856 259.002 21.0768 245.336 32.7721 235.996C44.4657 226.662 60.2428 222 80.0951 222C88.6648 222 96.5514 223.195 103.759 225.597C111.104 227.867 117.291 231.332 122.323 235.996C127.49 240.665 131.093 246.402 133.135 253.195C135.311 259.997 135.583 267.935 133.95 276.998C132.999 282.865 131.842 288.671 130.482 294.399C129.26 300.135 127.965 305.871 126.607 311.599C121.984 329.866 113.823 343.539 102.13 352.604C90.4324 361.537 74.7253 366 55.007 366H55.0073Z" fill="white" fill-opacity="0.05"/>
<path d="M22.9774 144C20.6719 144 18.9094 143.377 17.6885 142.147C16.6054 140.908 15.9925 139.473 15.8583 137.824L2.02544 5.56113C1.88973 3.7774 2.29713 2.4054 3.24426 1.44277C4.1953 0.480393 5.41412 0 6.90697 0H31.3177C33.4876 0 35.0481 0.623245 35.9953 1.85239C36.9463 2.94815 37.4879 4.11652 37.6236 5.35514L46.3712 100.385L95.1909 5.35514C95.7325 4.11652 96.6835 2.94841 98.038 1.85239C99.3947 0.623245 101.157 0 103.327 0H130.587C132.213 0 133.231 0.686125 133.636 2.05839C134.181 3.297 134.114 4.66926 133.434 6.17465L64.2719 137.824C63.4568 139.473 62.2359 140.907 60.6095 142.146C59.1169 143.377 57.1528 144 54.711 144H22.9769L22.9774 144Z" fill="white" fill-opacity="0.05"/>
<defs>
<clipPath id="clip0_175_58">
<rect width="99" height="147" fill="white" transform="translate(175 663)"/>
</clipPath>
<clipPath id="clip1_175_58">
<rect width="127" height="144" fill="white" transform="translate(4 666)"/>
</clipPath>
</defs>
</svg>
